<svg xmlns="http://www.w3.org/2000/svg" width="610" height="431" viewBox="0 0 610 431">
  <g id="Group_3271" data-name="Group 3271" transform="translate(-477 -314)">
    <path id="Path_64927" data-name="Path 64927" d="M-5590.535-19997.951l-155.312,424h609.77l-155.3-424Z" transform="translate(6222.848 20311.951)" fill="#090919" opacity="0.5"/>
    <path id="Path_64929" data-name="Path 64929" d="M-5600.608-19997.951l-145.239,396.5h570.221l-145.227-396.5Z" transform="translate(6242.848 20320.451)" fill="none" stroke="#3b3c43" stroke-width="1"/>
    <g id="Group_1343" data-name="Group 1343" transform="translate(-36.5 -52)">
      <path id="Path_64920" data-name="Path 64920" d="M-4839.5-19629.5h247.744l19.193,86.359h-282.651Z" transform="translate(5532.715 20314)" fill="none" stroke="#3b3c43" stroke-width="1"/>
      <g id="Path_64919" data-name="Path 64919" transform="translate(745.303 733)" fill="none">
        <path d="M1.152,0H145.091l2.3,38H0Z" stroke="none"/>
        <path d="M 2.121658325195312 1 L 1.030746459960938 37 L 146.3314971923828 37 L 144.1496887207031 1 L 2.121658325195312 1 M 1.151504516601562 0 L 145.0909118652344 0 L 147.3939208984375 38 L -1.52587890625e-05 38 L 1.151504516601562 0 Z" stroke="none" fill="#3b3c43"/>
      </g>
    </g>
    <path id="Path_64928" data-name="Path 64928" d="M0,0H610V8H0Z" transform="translate(477 737)" fill="#090919" opacity="0.7"/>
    <g id="Group_1249" data-name="Group 1249" transform="translate(5512.5 20260.502)">
      <path id="Path_64917" data-name="Path 64917" d="M-4846.131-19629.5H-4697.7l6.164,29.441h-158.674Z" transform="translate(40.715 -309.002)" fill="none" stroke="#3b3c43" stroke-width="1"/>
      <path id="Path_64921" data-name="Path 64921" d="M-4848.54-19629.5h60.861l2.528,12.072h-65.063Z" transform="translate(87.714 -309.002)" fill="none" stroke="#3b3c43" stroke-width="1"/>
    </g>
    <line id="Line_86" data-name="Line 86" x2="387" transform="translate(588.5 470.5)" fill="none" stroke="#3b3c43" stroke-linecap="round" stroke-width="1"/>
    <g id="Ellipse_275" data-name="Ellipse 275" transform="translate(748 445.374)" fill="none">
      <path d="M33.9,0A41.8,41.8,0,0,1,46.438,1.889,35.317,35.317,0,0,1,56.8,7.08a26.629,26.629,0,0,1,7.191,7.807,20.469,20.469,0,0,1,2.9,9.739,20.068,20.068,0,0,1-2.276,9.943,25.729,25.729,0,0,1-6.943,8.274A34.634,34.634,0,0,1,47.066,48.5a42.485,42.485,0,0,1-26.334,0,34.634,34.634,0,0,1-10.614-5.659,25.729,25.729,0,0,1-6.943-8.274A20.068,20.068,0,0,1,.9,24.626a20.469,20.469,0,0,1,2.9-9.739A26.629,26.629,0,0,1,10.994,7.08,35.317,35.317,0,0,1,21.36,1.889,41.8,41.8,0,0,1,33.9,0Z" stroke="none"/>
      <path d="M 33.89883041381836 49.78682327270508 C 35.00743865966797 49.78682327270508 36.10762786865234 49.74415969848633 37.19738388061523 49.65913391113281 C 38.28694915771484 49.57412338256836 39.36590957641602 49.44679260253906 40.43224716186523 49.27745056152344 C 41.49821853637695 49.10817337036133 42.55139923095703 48.89695358276367 43.58981323242188 48.64414596557617 C 44.6276741027832 48.39146041870117 45.65060806274414 48.09727478027344 46.65662384033203 47.76195526123047 C 47.62778472900391 47.43824005126953 48.57295608520508 47.07985305786133 49.49055480957031 46.68764877319336 C 50.40740966796875 46.2957649230957 51.29661178588867 45.87018203735352 52.15658187866211 45.41178131103516 C 53.01575088500977 44.95382308959961 53.84564208984375 44.46317672729492 54.64470672607422 43.94074249267578 C 55.44292068481445 43.41887283325195 56.21026992797852 42.8653450012207 56.94525146484375 42.28107833862305 C 57.67934036254883 41.697509765625 58.37178421020508 41.09070205688477 59.02161026000977 40.46192169189453 C 59.67060470581055 39.83395767211914 60.27703857421875 39.18413162231445 60.83996963500977 38.51371002197266 C 61.40211486816406 37.84421539306641 61.92084884643555 37.15423965454102 62.39521408081055 36.44502639770508 C 62.86890029907227 35.73686599731445 63.29832077026367 35.00958633422852 63.68257904052734 34.26444625854492 C 64.07973480224609 33.49430084228516 64.42403411865234 32.71339797973633 64.71526336669922 31.92321395874023 C 65.00602722167969 31.13432121276855 65.24388885498047 30.33620643615723 65.42863464355469 29.53033065795898 C 65.61309051513672 28.72580337524414 65.74459838867188 27.9135627746582 65.82300567626953 27.09505844116211 C 65.90127563476562 26.2779483795166 65.92660522460938 25.45461654663086 65.89881134033203 24.62649536132812 C 65.87105560302734 23.7998046875 65.79077911376953 22.98073768615723 65.65853881835938 22.1706485748291 C 65.52650451660156 21.36193656921387 65.34268188476562 20.56213760375977 65.10758209228516 19.77259254455566 C 64.87287902832031 18.9843578338623 64.58705902099609 18.2063159942627 64.25067138671875 17.43978691101074 C 63.91481781005859 16.67449378967285 63.52853775024414 15.92064380645752 63.09232711791992 15.1795482635498 C 62.67158508300781 14.46474170684814 62.20904922485352 13.76917839050293 61.70579528808594 13.09388542175293 C 61.20325469970703 12.4195556640625 60.66007232666016 11.76538467407227 60.07730484008789 11.13239192962646 C 59.49533081054688 10.50025081634521 58.87382888793945 9.889177322387695 58.21386337280273 9.300190925598145 C 57.55472183227539 8.711943626403809 56.85715103149414 8.145675659179688 56.12216567993164 7.602404594421387 C 55.38804626464844 7.059761524200439 54.62578201293945 6.546853542327881 53.83684921264648 6.064322471618652 C 53.04872512817383 5.58228874206543 52.23387145996094 5.130507469177246 51.39371871948242 4.709625244140625 C 50.55432510375977 4.289123058319092 49.68956756591797 3.899409770965576 48.80086135864258 3.541143417358398 C 47.91282272338867 3.183151245117188 47.00077056884766 2.856510400772095 46.06606292724609 2.561885356903076 C 45.09910202026367 2.257091760635376 44.11816024780273 1.990024328231812 43.12491607666016 1.760886549949646 C 42.13216018676758 1.531861782073975 41.126953125 1.340692162513733 40.11095428466797 1.187598824501038 C 39.09529113769531 1.034555792808533 38.06867218017578 0.9195389747619629 37.03276062011719 0.8427878022193909 C 35.99701690673828 0.7660491466522217 34.95180511474609 0.7275509834289551 33.89878082275391 0.7275509834289551 C 32.84575271606445 0.7275509834289551 31.80054473876953 0.7660491466522217 30.76480674743652 0.8427878022193909 C 29.72889137268066 0.9195389747619629 28.70227432250977 1.034555792808533 27.68661117553711 1.187598824501038 C 26.67061424255371 1.340692162513733 25.66540718078613 1.531861782073975 24.67265129089355 1.760886549949646 C 23.67941284179688 1.990024328231812 22.6984748840332 2.257091760635376 21.73151397705078 2.561885356903076 C 20.79681205749512 2.856510400772095 19.8847484588623 3.183151245117188 18.99672317504883 3.541143417358398 C 18.10800933837891 3.899409770965576 17.24325180053711 4.289123058319092 16.40385627746582 4.709625244140625 C 15.56370830535889 5.130507469177246 14.74885654449463 5.58228874206543 13.96073341369629 6.064322471618652 C 13.17179584503174 6.546853542327881 12.40954208374023 7.059761524200439 11.67541694641113 7.602404594421387 C 10.94043827056885 8.145675659179688 10.24286270141602 8.711943626403809 9.583722114562988 9.300190925598145 C 8.923752784729004 9.889177322387695 8.302255630493164 10.50025081634521 7.720278739929199 11.13239192962646 C 7.137517929077148 11.76538467407227 6.594333648681641 12.4195556640625 6.091795921325684 13.09388542175293 C 5.588537216186523 13.76917839050293 5.125999927520752 14.46474170684814 4.70527172088623 15.1795482635498 C 4.269069194793701 15.92064380645752 3.882785081863403 16.67449378967285 3.546934604644775 17.43978691101074 C 3.210539579391479 18.2063159942627 2.924726247787476 18.9843578338623 2.690020322799683 19.77259254455566 C 2.454923629760742 20.56213760375977 2.271095037460327 21.36193656921387 2.139072418212891 22.1706485748291 C 2.006824016571045 22.98073768615723 1.926554322242737 23.7998046875 1.898808121681213 24.62649536132812 C 1.871013760566711 25.45461654663086 1.896343111991882 26.2779483795166 1.974612236022949 27.09505844116211 C 2.053014755249023 27.9135627746582 2.184536218643188 28.72580337524414 2.368985652923584 29.53033065795898 C 2.553744792938232 30.33620643615723 2.791604280471802 31.13432121276855 3.082364082336426 31.92321395874023 C 3.373601675033569 32.71339797973633 3.717902660369873 33.49430084228516 4.115056991577148 34.26444625854492 C 4.499319076538086 35.00958633422852 4.928740978240967 35.73686599731445 5.402420520782471 36.44502639770508 C 5.876797676086426 37.15423965454102 6.395523548126221 37.84421539306641 6.95767879486084 38.51371002197266 C 7.520612239837646 39.18413162231445 8.127045631408691 39.83395767211914 8.77603816986084 40.46192169189453 C 9.425874710083008 41.09070205688477 10.11832046508789 41.697509765625 10.85241603851318 42.28107833862305 C 11.5873908996582 42.8653450012207 12.35474395751953 43.41887283325195 13.15295505523682 43.94074249267578 C 13.95202350616455 44.46317672729492 14.7819128036499 44.95382308959961 15.64108180999756 45.41178131103516 C 16.50106239318848 45.87018203735352 17.3902587890625 46.2957649230957 18.3071174621582 46.68764877319336 C 19.2247142791748 47.07985305786133 20.16988372802734 47.43824005126953 21.14105606079102 47.76195526123047 C 22.14706611633301 48.09727478027344 23.16999435424805 48.39146041870117 24.20786476135254 48.64414596557617 C 25.24627113342285 48.89695358276367 26.2994499206543 49.10817337036133 27.36542129516602 49.27745056152344 C 28.4317626953125 49.44679260253906 29.51071739196777 49.57412338256836 30.60028457641602 49.65913391113281 C 31.69004058837891 49.74415969848633 32.79022598266602 49.78682327270508 33.89883041381836 49.78682327270508 M 33.89883422851562 50.59450149536133 C 29.21838760375977 50.59450149536133 24.76644515991211 49.84864044189453 20.73206520080566 48.50270080566406 C 16.70876884460449 47.16046524047852 13.11058902740479 45.2247314453125 10.11844921112061 42.84332656860352 C 7.140903949737549 40.47353363037109 4.768967151641846 37.66675567626953 3.17502760887146 34.56902313232422 C 1.591274261474609 31.49108505249023 0.7775564193725586 28.12968635559082 0.8988081216812134 24.62649536132812 C 1.019175171852112 21.14886283874512 2.04988956451416 17.85935592651367 3.802718639373779 14.88710498809814 C 5.544575214385986 11.93346214294434 8.001769065856934 9.289316177368164 10.99371337890625 7.080187797546387 C 13.97160053253174 4.881441593170166 17.4846305847168 3.109640836715698 21.36003494262695 1.889118671417236 C 25.22530364990234 0.671789824962616 29.46012496948242 0 33.89878082275391 0 C 38.33744049072266 0 42.572265625 0.671789824962616 46.43753433227539 1.889119267463684 C 50.31294631958008 3.109641551971436 53.82597732543945 4.881442546844482 56.80386352539062 7.080189228057861 C 59.79581832885742 9.28931713104248 62.25301742553711 11.93346405029297 63.994873046875 14.88710689544678 C 65.74770355224609 17.8593578338623 66.77843475341797 21.14886283874512 66.89881134033203 24.62649536132812 C 67.02006530761719 28.12968635559082 66.20635986328125 31.49108505249023 64.62260437011719 34.56902313232422 C 63.02868270874023 37.66675567626953 60.6567497253418 40.47353363037109 57.6792106628418 42.84332656860352 C 54.68706893920898 45.2247314453125 51.08890151977539 47.16046524047852 47.06560516357422 48.50270080566406 C 43.03123092651367 49.84864044189453 38.57928848266602 50.59450149536133 33.89883422851562 50.59450149536133 Z" stroke="none" fill="#3b3c43"/>
    </g>
  </g>
</svg>
